HIERARCHY
ROOT Hips
{
	OFFSET 0.000000 0.000000 0.000000
	CHANNELS 6 Xposition Yposition Zposition Xrotation Yrotation Zrotation
	JOINT LeftUpLeg_virtual
	{
		OFFSET 0.000000 0.000000 0.000000
		CHANNELS 3 Xrotation Yrotation Zrotation
		JOINT LeftUpLeg
		{
			OFFSET 13.026900 -6.336304 -1.092800
			CHANNELS 3 Xrotation Yrotation Zrotation
			JOINT LeftLeg
			{
				OFFSET 0.524474 -46.096886 9.782700
				CHANNELS 3 Xrotation Yrotation Zrotation
				JOINT LeftFoot
				{
					OFFSET -0.524474 -53.427422 -12.948200
					CHANNELS 3 Xrotation Yrotation Zrotation
					JOINT LeftToeBase
					{
						OFFSET 0.192200 -14.009700 16.364100
						CHANNELS 3 Xrotation Yrotation Zrotation
						JOINT LeftToe_End
						{
							OFFSET -1.784700 -0.561700 9.474800
							CHANNELS 3 Xrotation Yrotation Zrotation
							End Site
							{
								OFFSET 0 0 0
							}
						}
					}
				}
			}
		}
	}
	JOINT RightUpLeg_virtual
	{
		OFFSET 0.000000 0.000000 0.000000
		CHANNELS 3 Xrotation Yrotation Zrotation
		JOINT RightUpLeg
		{
			OFFSET -12.883000 -6.336304 -1.092800
			CHANNELS 3 Xrotation Yrotation Zrotation
			JOINT RightLeg
			{
				OFFSET -0.524587 -46.096825 9.782800
				CHANNELS 3 Xrotation Yrotation Zrotation
				JOINT RightFoot
				{
					OFFSET 0.524587 -53.427383 -12.948300
					CHANNELS 3 Xrotation Yrotation Zrotation
					JOINT RightToeBase
					{
						OFFSET -0.192200 -14.009700 16.364100
						CHANNELS 3 Xrotation Yrotation Zrotation
						JOINT RightToe_End
						{
							OFFSET 1.784700 -0.561700 9.474800
							CHANNELS 3 Xrotation Yrotation Zrotation
							End Site
							{
								OFFSET 0 0 0
							}
						}
					}
				}
			}
		}
	}
	JOINT Spine_virtual
	{
		OFFSET 0.000000 0.000000 0.000000
		CHANNELS 3 Xrotation Yrotation Zrotation
		JOINT Spine
		{
			OFFSET 0.072000 7.257294 -0.789700
			CHANNELS 3 Xrotation Yrotation Zrotation
			JOINT Spine1
			{
				OFFSET 0.000000 12.508769 -0.658067
				CHANNELS 3 Xrotation Yrotation Zrotation
				JOINT Spine1_split
				{
					OFFSET 0.000000 12.508769 -0.658067
					CHANNELS 3 Xrotation Yrotation Zrotation
					JOINT Spine2
					{
						OFFSET 0.000000 12.508769 -0.658067
						CHANNELS 3 Xrotation Yrotation Zrotation
						JOINT Neck_virtual
						{
							OFFSET 0.000000 0.000000 0.000000
							CHANNELS 3 Xrotation Yrotation Zrotation
							JOINT Neck
							{
								OFFSET 0.000000 14.033295 7.520400
								CHANNELS 3 Xrotation Yrotation Zrotation
								JOINT Head
								{
									OFFSET 0.000000 8.198502 5.703100
									CHANNELS 3 Xrotation Yrotation Zrotation
									JOINT HeadTop_End
									{
										OFFSET 0.000000 17.760803 13.332701
										CHANNELS 3 Xrotation Yrotation Zrotation
										End Site
										{
											OFFSET 0 0 0
										}
									}
								}
							}
						}
						JOINT LeftShoulder_virtual
						{
							OFFSET 0.000000 0.000000 0.000000
							CHANNELS 3 Xrotation Yrotation Zrotation
							JOINT LeftShoulder
							{
								OFFSET 6.292450 5.785301 -0.669000
								CHANNELS 3 Xrotation Yrotation Zrotation
								JOINT LeftShoulder_split
								{
									OFFSET 6.292450 5.785301 -0.669000
									CHANNELS 3 Xrotation Yrotation Zrotation
									JOINT LeftArm
									{
										OFFSET 13.907140 -6.093903 1.965100
										CHANNELS 3 Xrotation Yrotation Zrotation
										JOINT LeftForeArm
										{
											OFFSET 34.140198 0.000000 0.000000
											CHANNELS 3 Xrotation Yrotation Zrotation
											JOINT LeftHand
											{
												OFFSET 40.960209 0.000000 0.000000
												CHANNELS 3 Xrotation Yrotation Zrotation
												End Site
												{
													OFFSET 0 0 0
												}
											}
										}
									}
								}
							}
						}
						JOINT RightShoulder_virtual
						{
							OFFSET 0.000000 0.000000 0.000000
							CHANNELS 3 Xrotation Yrotation Zrotation
							JOINT RightShoulder
							{
								OFFSET -6.292450 5.785301 -0.669000
								CHANNELS 3 Xrotation Yrotation Zrotation
								JOINT RightShoulder_split
								{
									OFFSET -6.292450 5.785301 -0.669000
									CHANNELS 3 Xrotation Yrotation Zrotation
									JOINT RightArm
									{
										OFFSET -13.907140 -6.093903 1.965100
										CHANNELS 3 Xrotation Yrotation Zrotation
										JOINT RightForeArm
										{
											OFFSET -34.140198 0.000000 0.000000
											CHANNELS 3 Xrotation Yrotation Zrotation
											JOINT RightHand
											{
												OFFSET -40.960209 0.000000 0.000000
												CHANNELS 3 Xrotation Yrotation Zrotation
												End Site
												{
													OFFSET 0 0 0
												}
											}
										}
									}
								}
							}
						}
					}
				}
			}
		}
	}
}
MOTION
Frames: 4
Frame Time: 0.03333333
-0.930056 103.993698 53.429924 0.000000 0.000000 0.000000 9.851355 -5.390978 0.337912 -32.603181 6.708532 18.032196 38.258048 7.244096 -0.057744 -11.124027 -2.458428 -13.576641 0.420426 -0.336684 0.325391 0.000000 0.000000 0.000000 10.090265 -5.144997 0.604650 -39.676856 -2.039717 -5.989880 40.140055 1.582439 -4.168820 -8.768811 -9.627484 9.388717 0.320890 -0.127977 -0.285856 0.000000 0.000000 0.000000 10.014955 -4.945313 0.257163 6.336191 -0.123473 -0.593488 1.778000 -0.361297 0.421296 1.078248 1.576998 -0.077073 0.000000 0.000000 0.000000 1.671337 -0.806743 0.355715 12.610316 -0.439628 0.842186 -30.012992 0.684832 -4.891168 0.000000 0.000000 0.000000 1.539071 -0.708649 0.666508 5.944787 -9.465076 19.390326 -1.134001 -4.179668 -0.102477 -33.366601 -15.106582 -13.905357 178.317347 -57.919717 179.808213 0.000000 0.000000 0.000000 0.829267 -0.768099 0.569145 -0.865422 -8.209802 -16.555219 0.301336 -0.292916 1.875626 -38.414753 35.408759 31.215252 179.096562 52.173339 -179.612119 0.000000 0.000000 0.000000 
-1.064873 107.155983 54.419357 0.000000 0.000000 0.000000 10.027659 -5.210966 0.546198 -29.789884 7.752264 17.294025 32.601053 7.590479 0.213601 -9.738353 -2.466746 -13.066509 0.625941 -0.234689 0.087666 0.000000 0.000000 0.000000 10.343243 -4.774165 0.695450 -36.480737 -2.596665 -5.795885 34.593460 1.325438 -4.111505 -6.775122 -9.601417 9.376515 -0.257994 -0.181622 -0.258723 0.000000 0.000000 0.000000 10.315483 -4.716491 0.413738 6.120706 -0.241100 -0.542744 0.930219 -0.383175 0.276100 1.171572 1.512732 0.042525 0.000000 0.000000 0.000000 0.673449 -0.826891 0.227034 12.372730 -0.370335 0.992879 -29.008486 0.648432 -4.673100 0.000000 0.000000 0.000000 0.494657 -0.754258 0.478705 5.964573 -9.486484 19.160591 -1.389958 -3.935579 -0.117992 -32.786295 -15.554170 -14.222218 178.584858 -58.075678 -179.973490 0.000000 0.000000 0.000000 -0.228636 -0.768039 0.466901 -0.963973 -8.124840 -16.610684 0.526973 -0.663759 1.965744 -36.970762 36.139719 30.542834 179.008822 52.363536 -179.284515 0.000000 0.000000 0.000000 
-1.183306 110.033012 55.257442 0.000000 0.000000 0.000000 10.191293 -5.014468 0.735699 -27.206780 8.690316 16.517798 27.263323 7.795515 0.524170 -8.266843 -2.660392 -12.764450 0.755398 -0.120003 -0.061235 0.000000 0.000000 0.000000 10.570741 -4.391819 0.777599 -33.572736 -2.970434 -5.645749 29.566321 1.031729 -4.037125 -4.808993 -9.549116 9.399225 -0.699278 -0.229655 -0.227382 0.000000 0.000000 0.000000 10.542044 -4.398419 0.557557 5.970910 -0.344546 -0.521893 0.175296 -0.436924 0.187419 1.218232 1.414960 0.144516 0.000000 0.000000 0.000000 -0.167039 -0.871958 0.165807 11.936319 -0.305037 1.035341 -28.026375 0.655639 -4.492802 0.000000 0.000000 0.000000 -0.417182 -0.803317 0.344119 5.877784 -9.162788 18.925244 -1.528901 -3.860197 -0.079503 -31.847253 -16.810164 -14.455460 178.852793 -58.485783 -179.776426 0.000000 0.000000 0.000000 -1.138135 -0.793326 0.398079 -1.098627 -8.129339 -16.533967 0.618362 -1.088914 1.998028 -35.477102 36.944077 30.091884 178.915193 52.626901 -178.921887 0.000000 0.000000 0.000000 
-1.257899 112.317932 55.840157 0.000000 0.000000 0.000000 10.299120 -4.832287 0.873144 -25.106269 9.462103 15.818921 22.728247 7.890815 0.797302 -6.805731 -2.984418 -12.661892 0.839955 -0.003224 -0.123571 0.000000 0.000000 0.000000 10.762595 -4.052495 0.838720 -31.205598 -3.156875 -5.559564 25.343108 0.743680 -3.972127 -3.160981 -9.449959 9.394462 -0.782388 -0.267604 -0.199361 0.000000 0.000000 0.000000 10.681896 -4.088958 0.663441 5.890444 -0.411258 -0.514759 -0.418939 -0.505662 0.157710 1.226276 1.337658 0.160100 0.000000 0.000000 0.000000 -0.787108 -0.937500 0.176660 11.432885 -0.257273 1.014518 -27.058061 0.719933 -4.384462 0.000000 0.000000 0.000000 -1.143248 -0.852173 0.284367 5.708202 -8.482356 18.720649 -1.611335 -3.837047 0.004378 -30.783123 -18.684594 -14.638796 179.132148 -58.676810 -179.542287 0.000000 0.000000 0.000000 -1.814415 -0.831772 0.370189 -1.257167 -8.231775 -16.337922 0.528069 -1.283913 2.004459 -34.178752 37.567058 29.938461 178.847028 52.821756 -178.623613 0.000000 0.000000 0.000000 
